<svg xmlns="http://www.w3.org/2000/svg" version="1.1" xmlns:xlink="http://www.w3.org/1999/xlink" xmlns:svgjs="http://svgjs.com/svgjs" width="1920" height="560" preserveAspectRatio="none" viewBox="0 0 1920 560"><g mask="url(&quot;#SvgjsMask1070&quot;)" fill="none"><rect width="1920" height="560" x="0" y="0" fill="rgba(255, 255, 255, 1)"></rect><path d="M146.773,473.914C176.293,472.809,191.919,442.101,205.824,416.037C218.599,392.092,230.999,364.651,217.684,341.002C204.198,317.049,174.256,310.652,146.773,311.151C120.329,311.631,94.016,320.955,80.187,343.5C65.754,367.03,66.984,396.177,79.536,420.762C93.46,448.034,116.173,475.059,146.773,473.914" fill="rgba(201, 201, 201, 0.19)" class="triangle-float2"></path><path d="M1360.817,365.198C1418.091,365.875,1468.346,326.353,1493.184,274.74C1515.216,228.958,1496.337,178.725,1472.022,134.114C1446.195,86.727,1414.663,35.5,1360.817,31.879C1302.218,27.939,1247.791,65.291,1220.293,117.187C1194.353,166.142,1206.447,223.472,1233.759,271.675C1261.545,320.715,1304.456,364.532,1360.817,365.198" fill="rgba(201, 201, 201, 0.19)" class="triangle-float2"></path><path d="M297.741,374.071C324.754,375.457,352.264,363.115,364.96,339.231C377.071,316.447,367.594,289.88,354.226,267.81C341.463,246.739,322.347,229.445,297.741,228.259C271.063,226.973,243.609,238.343,230.963,261.868C218.816,284.464,228.373,310.851,241.493,332.896C254.23,354.297,272.87,372.795,297.741,374.071" fill="rgba(201, 201, 201, 0.19)" class="triangle-float3"></path><path d="M841.529,364.648C873.392,365.034,898.79,340.093,913.331,311.739C926.569,285.925,924.143,256.075,910.276,230.593C895.679,203.769,872.051,178.788,841.529,179.793C812.094,180.762,793.962,208.837,780.198,234.874C767.586,258.732,761.148,285.636,772.679,310.034C786.095,338.421,810.134,364.268,841.529,364.648" fill="rgba(201, 201, 201, 0.19)" class="triangle-float3"></path><path d="M654.844,441.419C673.984,441.086,691.504,432.212,702.186,416.327C714.441,398.103,722.882,375.059,712.469,355.724C701.667,335.667,677.564,326.752,654.844,328.421C634.68,329.902,620.122,345.604,610.228,363.235C600.597,380.396,594.806,400.934,604.56,418.026C614.381,435.235,635.033,441.764,654.844,441.419" fill="rgba(201, 201, 201, 0.19)" class="triangle-float1"></path><path d="M533.197,509.028C566.619,508.645,591.197,482.681,609.263,454.56C629.502,423.057,652.597,384.944,633.671,352.635C614.84,320.487,570.411,322.917,533.197,324.705C500.126,326.294,465.225,333.175,448.164,361.55C430.68,390.629,437.105,426.943,454.053,456.337C471.02,485.765,499.23,509.417,533.197,509.028" fill="rgba(201, 201, 201, 0.19)" class="triangle-float1"></path><path d="M1442.888,546.614C1464.294,546.709,1484.544,536.286,1495.463,517.874C1506.603,499.09,1508.067,475.072,1496.181,456.751C1485.118,439.699,1463.162,435.38,1442.888,436.836C1425.298,438.099,1410.918,448.723,1401.385,463.559C1390.797,480.037,1382.358,499.891,1391.113,517.412C1400.606,536.409,1421.651,546.52,1442.888,546.614" fill="rgba(201, 201, 201, 0.19)" class="triangle-float2"></path><path d="M445.693,507.993C469.442,508.389,488.003,490.337,500.232,469.975C512.928,448.836,521.942,422.939,509.598,401.592C497.264,380.261,470.33,375.242,445.693,375.656C421.944,376.055,396.952,382.924,385.407,403.681C374.098,424.015,382.575,448.062,394.217,468.207C405.847,488.331,422.453,507.605,445.693,507.993" fill="rgba(201, 201, 201, 0.19)" class="triangle-float3"></path><path d="M1954.81,667.413C1997.397,667.769,2027.676,630.222,2047.604,592.584C2066.031,557.781,2071.007,517.358,2052.726,482.478C2033.054,444.945,1997.172,416.635,1954.81,415.534C1910.668,414.387,1867.841,437.872,1847.667,477.151C1828.869,513.751,1844.472,555.206,1864.661,591.057C1885.371,627.834,1912.604,667.061,1954.81,667.413" fill="rgba(201, 201, 201, 0.19)" class="triangle-float1"></path><path d="M1189.174,584.763C1246.327,587.953,1306.816,571.247,1336.798,522.485C1367.966,471.794,1360.274,407.176,1329.79,356.07C1300.084,306.267,1247.156,275.979,1189.174,274.991C1129.348,273.971,1067.735,298.11,1040.002,351.13C1013.716,401.384,1037.059,459.658,1067.579,507.458C1095.282,550.846,1137.776,581.894,1189.174,584.763" fill="rgba(201, 201, 201, 0.19)" class="triangle-float1"></path><path d="M462.65,134.321C496.16,135.205,532.235,126.592,548.974,97.548C565.697,68.532,554.034,33.62,537.463,4.517C520.667,-24.981,496.592,-53.585,462.65,-54.055C428.112,-54.534,400.453,-28.064,384.158,2.392C368.854,30.996,367.281,65.315,383.868,93.195C400.103,120.482,430.91,133.484,462.65,134.321" fill="rgba(201, 201, 201, 0.19)" class="triangle-float1"></path></g><defs><mask id="SvgjsMask1070"><rect width="1920" height="560" fill="#ffffff"></rect></mask><style>
            @keyframes float1 {
                0%{transform: translate(0, 0)}
                50%{transform: translate(-10px, 0)}
                100%{transform: translate(0, 0)}
            }

            .triangle-float1 {
                animation: float1 5s infinite;
            }

            @keyframes float2 {
                0%{transform: translate(0, 0)}
                50%{transform: translate(-5px, -5px)}
                100%{transform: translate(0, 0)}
            }

            .triangle-float2 {
                animation: float2 4s infinite;
            }

            @keyframes float3 {
                0%{transform: translate(0, 0)}
                50%{transform: translate(0, -10px)}
                100%{transform: translate(0, 0)}
            }

            .triangle-float3 {
                animation: float3 6s infinite;
            }
        </style></defs></svg>