<svg xmlns="http://www.w3.org/2000/svg" version="1.1" xmlns:xlink="http://www.w3.org/1999/xlink" xmlns:svgjs="http://svgjs.com/svgjs" width="1920" height="250" preserveAspectRatio="none" viewBox="0 0 1920 250"><g mask="url(&quot;#SvgjsMask1021&quot;)" fill="none"><path d="M37 250L287 0L375.5 0L125.5 250z" fill="url(#SvgjsLinearGradient1022)"></path><path d="M379.8 250L629.8 0L977.8 0L727.8 250z" fill="url(#SvgjsLinearGradient1022)"></path><path d="M695.6 250L945.6 0L1251.6 0L1001.6 250z" fill="url(#SvgjsLinearGradient1022)"></path><path d="M965.4000000000001 250L1215.4 0L1521.4 0L1271.4 250z" fill="url(#SvgjsLinearGradient1022)"></path><path d="M1892 250L1642 0L1399 0L1649 250z" fill="url(#SvgjsLinearGradient1023)"></path><path d="M1583.2 250L1333.2 0L962.7 0L1212.7 250z" fill="url(#SvgjsLinearGradient1023)"></path><path d="M1273.4 250L1023.4000000000001 0L612.4000000000001 0L862.4000000000001 250z" fill="url(#SvgjsLinearGradient1023)"></path><path d="M931.5999999999999 250L681.5999999999999 0L494.0999999999999 0L744.0999999999999 250z" fill="url(#SvgjsLinearGradient1023)"></path><path d="M1694.377613752636 250L1920 24.37761375263608L1920 250z" fill="url(#SvgjsLinearGradient1022)"></path><path d="M0 250L225.62238624736392 250L 0 24.37761375263608z" fill="url(#SvgjsLinearGradient1023)"></path></g><defs><mask id="SvgjsMask1021"><rect width="1920" height="250" fill="#ffffff"></rect></mask><linearGradient x1="0%" y1="100%" x2="100%" y2="0%" id="SvgjsLinearGradient1022"><stop stop-color="rgba(184, 184, 184, 0.17)" offset="0"></stop><stop stop-opacity="0" stop-color="rgba(184, 184, 184, 0.17)" offset="0.66"></stop></linearGradient><linearGradient x1="100%" y1="100%" x2="0%" y2="0%" id="SvgjsLinearGradient1023"><stop stop-color="rgba(184, 184, 184, 0.17)" offset="0"></stop><stop stop-opacity="0" stop-color="rgba(184, 184, 184, 0.17)" offset="0.66"></stop></linearGradient></defs></svg>